<svg xmlns="http://www.w3.org/2000/svg" width="100" height="100" viewBox="0 0 100 100" xml:space="preserve">
  <path fill-rule="evenodd" clip-rule="evenodd" fill="#91BED4" d="M98.326 50.024c-.01 26.654-21.603 48.311-48.317 48.294-26.62-.017-48.231-21.488-48.277-48.206C1.687 23.321 23.318 1.643 50.218 1.729c26.575.086 48.081 21.626 48.108 48.295zM50.035 3.134c-25.802 0-46.697 20.987-46.72 46.925-.023 25.866 20.937 46.842 46.817 46.853 25.594.012 46.593-21.039 46.604-46.72.012-26.028-20.858-47.058-46.701-47.058z"/>
  <path fill-rule="evenodd" clip-rule="evenodd" fill="#FFFFFF" d="M50.035 3.134c25.843 0 46.713 21.029 46.701 47.058-.012 25.681-21.011 46.731-46.604 46.72-25.88-.011-46.84-20.987-46.817-46.852.023-25.939 20.918-46.925 46.72-46.926zm44.839 46.941c.017-24.873-20.001-45.024-44.762-45.057C25.264 4.984 5.22 25.071 5.189 50.035c-.03 24.827 20.053 44.993 44.818 45.003 24.766.011 44.85-20.116 44.867-44.963z"/>
  <path fill-rule="evenodd" clip-rule="evenodd" fill="#91BED4" d="M94.874 50.075c-.017 24.847-20.101 44.974-44.866 44.963-24.766-.01-44.849-20.176-44.819-45.003C5.22 25.071 25.264 4.984 50.112 5.018c24.761.033 44.779 20.184 44.762 45.057zM47.729 22.058c.12-1.464 1.017-2.427 2.103-3.269.086-.016.171-.036.258-.047 2.263-.289 3.781-1.92 3.792-4.205.01-2.106-.083-4.213-.125-6.319-.004-.241-.046-.374-.34-.361-.95.041-1.901.062-2.853.076-.253.004-.329.105-.317.344.023.511.029 1.024.041 1.536.036 1.551.076 3.101.104 4.652.019.924-.298 1.438-1.038 1.747-1.458.607-2.769-.221-2.831-1.789-.007-.19-.006-.381-.01-.571-.043-1.77-.095-3.54-.123-5.31-.006-.377-.088-.534-.514-.503-.86.063-1.725.078-2.588.078-.33 0-.42.094-.41.424.06 1.945.095 3.891.142 5.836.011.456.11.897.2 1.342.187.917.747 1.595 1.376 2.233.059.19-.095.251-.204.342-.94.775-1.72 1.688-2.384 2.709-.556.853-.987 1.772-1.474 2.661l-1.661.627c-.035-.079-.081-.154-.105-.236-.328-1.12-.124-2.243-.008-3.365a6.975 6.975 0 0 0 1.415-.679c1.569-.964 2.233-2.391 2.163-4.202-.013-.315-.097-.465-.458-.418-.708.092-1.422.141-2.133.208-.612.057-.608.056-.597.682.004.218-.013.437-.02.655-.448.267-.908.519-1.343.806-.36.237-.605.618-.99.829-.688.074-1.136-.316-1.488-.823a6.434 6.434 0 0 1-1.05-2.531c-.186-1.011.192-1.85 1.023-2.314.97-.542 1.803-.459 2.611.279.129.119.217.162.372.059a182.86 182.86 0 0 1 2.238-1.464c.179-.115.146-.206.023-.334-.745-.782-1.602-1.361-2.701-1.505-1.362-.179-2.601.237-3.808.799-.983.458-1.844 1.076-2.452 1.994-.985 1.489-.903 3.064-.344 4.668.66 1.895 1.836 3.272 3.845 3.808-.909 1.878-1.232 3.902-1.449 5.96a5.328 5.328 0 0 1-1.005-2.637c-.103-1.019-.169-2.044-.373-3.144-.413 2.174-1.134 4.729-.873 7.833l-.565.426c-.375-.32-.372-.32-.483.176-.039.171-.096.337-.144.505a26.839 26.839 0 0 0-2.327 2.68c-3.244 4.295-5.123 9.117-5.619 14.481a27.79 27.79 0 0 0 1.331 11.469 27.527 27.527 0 0 0 5.928 10.041c3.2 3.477 7.026 6.015 11.502 7.541 5.098 1.738 10.277 1.979 15.521.736 4.667-1.104 8.773-3.285 12.293-6.525 4.862-4.477 7.813-9.994 8.821-16.536.559-3.618.388-7.205-.457-10.763-.748-3.16-2.035-6.089-3.802-8.81.623-.73 1.408-1.229 2.291-1.583.225.123.342.35.511.527 1.272 1.337 2.785 2.022 4.65 1.661 1.223-.236 2.246-.892 3.158-1.714 1.716-1.545 2.178-3.474 1.345-5.602-.372-.948-.922-1.796-1.594-2.555-1.136-1.281-2.504-2.123-4.286-2-3.443.236-5.888 3.304-5.358 6.688-.457.161-.946.061-1.417.19-.709.194-1.327.56-1.965.894l-.487-.466c.042-1.092.173-2.182.005-3.278-.151-.986-.716-1.637-1.572-2.156 0 .463.03.873-.007 1.277-.066.703-.234 1.377-.781 1.888-.144-.016-.223-.133-.322-.213a28.048 28.048 0 0 0-3.984-2.69c-.165-.092-.324-.201-.527-.18-.581-.315-1.103-.74-1.734-.962-.589-.207-1.179-.41-1.767-.615-.063-.14-.203-.157-.323-.199a27.465 27.465 0 0 0-10.47-1.51c-.333.016-.668.011-1.002.016zM38.97 82.74c.013-.6-.101-1.17-.326-1.717-.591-1.438-1.761-2.247-3.113-2.854-2.305-1.034-4.449-.732-5.954.935-1.164 1.289-1.789 2.843-1.761 4.599.021 1.371.578 2.525 1.662 3.386a7.7 7.7 0 0 0 3.35 1.548c1.595.312 3.044-.039 4.18-1.238 1.228-1.296 1.853-2.878 1.962-4.659zm30.689-69.221c-2.368-.093-3.74 1.94-2.862 3.865.402.88 1.032 1.588 1.691 2.274.404.421.838.817 1.175 1.299.351.501.381.977.095 1.338-.266.333-.824.444-1.334.265-1.198-.423-1.69-1.369-1.32-2.594.069-.224.016-.312-.165-.412-.793-.438-1.58-.884-2.369-1.33-.18-.102-.309-.118-.403.116-.518 1.286-.594 2.565.287 3.705 1.129 1.46 2.643 2.419 4.388 2.995.704.231 1.432.234 2.163.04 2.07-.55 2.991-2.717 1.928-4.574-.373-.651-.867-1.21-1.378-1.753-.519-.553-1.061-1.086-1.571-1.647-.213-.234-.337-.527-.139-.842.212-.335.538-.385.889-.308 1.027.223 1.582 1.091 1.363 2.13-.035.166-.031.259.136.351.818.452 1.63.917 2.439 1.384.166.096.251.079.323-.109.263-.682.417-1.372.212-2.099-.287-1.024-.976-1.749-1.802-2.356-1.196-.878-2.439-1.669-3.746-1.738zM67.05 76.487c-.107.05-.214.098-.319.148-2.31 1.126-4.615 2.263-6.936 3.368-.375.179-.41.324-.236.676 1.26 2.554 2.5 5.117 3.75 7.676.205.419.337 1.053.664 1.186.374.151.855-.316 1.285-.524 2.093-1.007 4.177-2.03 6.27-3.034.281-.136.359-.251.191-.547a14.205 14.205 0 0 1-.688-1.415c-.129-.302-.259-.337-.553-.189-1.423.715-2.863 1.394-4.285 2.107-.303.151-.427.101-.549-.202a8.407 8.407 0 0 0-.577-1.179c-.168-.281-.058-.361.181-.476 1.292-.619 2.572-1.261 3.866-1.874.261-.123.313-.237.179-.489a15.62 15.62 0 0 1-.638-1.299c-.111-.263-.235-.268-.463-.155a212.628 212.628 0 0 1-3.146 1.542c-.339.162-.706.522-1.017.42-.313-.104-.353-.633-.56-.946-.247-.374-.122-.53.248-.703 1.376-.641 2.737-1.313 4.101-1.979.135-.065.36-.089.212-.365-.275-.514-.519-1.046-.775-1.569-.042-.089-.063-.205-.205-.178zm8.813-4.946c-.098-.116-.152-.185-.212-.249-.37-.394-.757-.775-1.106-1.187-.184-.217-.29-.186-.476-.011a1321.54 1321.54 0 0 1-5.853 5.486c-.182.169-.191.265-.018.448 2.254 2.394 4.503 4.793 6.745 7.198.175.187.276.174.452.009 1.988-1.874 3.98-3.742 5.978-5.605.184-.171.192-.279.017-.457a17.423 17.423 0 0 1-1.106-1.185c-.231-.276-.374-.247-.619-.013-1.129 1.082-2.284 2.134-3.413 3.215-.251.24-.405.305-.644-.007a6.29 6.29 0 0 0-.81-.862c-.274-.243-.257-.396.015-.643 1.038-.942 2.047-1.917 3.083-2.864.225-.207.234-.342.016-.548-.351-.329-.684-.677-1.019-1.022-.145-.15-.266-.189-.438-.024-.832.791-1.671 1.576-2.515 2.356-.296.273-.562.768-.913.744-.348-.022-.558-.55-.864-.815-.258-.222-.217-.364.021-.582 1.142-1.047 2.267-2.113 3.399-3.17.085-.077.185-.14.28-.212zM30.536 23.518c-.017-.204-.013-.412-.054-.611a3.997 3.997 0 0 0-.219-.756c-.838-1.97-2.181-3.518-3.998-4.634-.979-.602-2.052-.694-3.118-.239-1.287.549-2.277 1.462-3.001 2.657-.65 1.074-.683 2.197-.134 3.31.872 1.767 2.134 3.208 3.811 4.252.97.604 2.043.731 3.116.305 1.347-.536 2.371-1.479 3.132-2.704.297-.478.471-1.005.465-1.58zm31.629-6.826c2.337.028 4.019-2.422 3.16-4.611-.425-1.083-1.339-1.604-2.365-1.917-1.873-.572-3.766-1.077-5.646-1.624-.26-.076-.358-.024-.432.232-.905 3.222-1.818 6.441-2.737 9.66-.063.218-.029.311.191.372.944.261 1.885.531 2.825.807.242.07.333-.016.396-.247.275-1.016.592-2.02.845-3.042.099-.405.25-.417.602-.314 1.036.302 2.059.682 3.161.684zM13.087 29.744c.006.783.196 1.393.712 2.026 1.234 1.515 2.828 2.512 4.656 3.15 1.008.352 2.007.342 2.977-.157 1.169-.603 1.853-1.641 2.38-2.775.841-1.807.58-3.125-.836-4.538a10.8 10.8 0 0 0-3.519-2.335c-.978-.407-1.972-.588-3.035-.288-1.78.503-3.42 3.346-3.335 4.917zm10.83 40.988c-.397-.008-.791.022-1.171.142-1.741.544-2.969 1.719-3.864 3.25-1.055 1.804-.882 3.691.417 5.311.385.479.814.917 1.285 1.312 1.615 1.354 3.317 1.516 5.158.511.27-.147.31-.278.148-.538-.277-.446-.521-.912-.781-1.37-.151-.267-.243-.641-.472-.769-.253-.141-.517.223-.8.309-.056.018-.109.041-.165.06-.835.278-1.541.062-2.147-.661-.553-.657-.625-1.334-.179-2.107a6.196 6.196 0 0 1 2.1-2.193c.778-.486 1.649-.434 2.326.12.713.583.919 1.339.586 2.237-.068.185-.063.282.118.39.679.402 1.35.817 2.018 1.235.166.104.271.131.364-.085.413-.967.64-1.972.304-2.99-.593-1.796-1.892-2.977-3.549-3.793a3.565 3.565 0 0 0-1.696-.371zm64.711-36.511c-.046.016-.087.033-.129.044-3.26.923-6.52 1.847-9.781 2.766-.243.069-.224.197-.166.394.267.896.532 1.792.767 2.696.079.307.191.358.485.271 1.135-.338 2.28-.637 3.412-.98.33-.101.444-.034.533.296.314 1.186.666 2.361.99 3.544.065.238.156.297.397.217.471-.156.949-.292 1.432-.408.279-.068.328-.176.244-.454-.353-1.175-.667-2.361-1.02-3.537-.082-.278-.026-.399.25-.462a8.381 8.381 0 0 0 1.055-.296c.305-.115.426-.055.516.271.387 1.423.813 2.836 1.199 4.259.074.271.16.317.417.235a24.718 24.718 0 0 1 1.56-.44c.25-.063.321-.152.239-.42-.275-.893-.521-1.795-.775-2.695-.474-1.672-.946-3.345-1.422-5.017-.032-.114-.021-.274-.203-.284zm-39.129 48.05c-.029-.166.167-.409-.201-.457-2.451-.317-4.901-.645-7.35-.977-.265-.036-.351.035-.384.305-.173 1.392-.367 2.783-.555 4.175-.246 1.825-.483 3.652-.744 5.476-.048.331.045.434.365.468.829.087 1.657.19 2.48.32.277.043.359-.028.391-.29.138-1.133.317-2.261.425-3.396.042-.438.189-.522.595-.459 1.054.164 2.117.279 3.173.437.291.044.384-.031.406-.323.034-.466.09-.933.182-1.39.062-.311-.054-.369-.326-.401-1.118-.134-2.232-.296-3.349-.431-.245-.031-.326-.103-.277-.359.072-.372.116-.751.145-1.131.023-.303.133-.377.446-.33 1.331.2 2.667.358 3.999.55.274.039.365-.037.39-.303.046-.494.123-.986.189-1.484zm8.637-1.748c-.058.012-.115.027-.172.036-2.362.407-4.725.821-7.092 1.211-.354.058-.448.148-.379.521.277 1.48.513 2.967.769 4.451.295 1.716.595 3.429.886 5.145.041.241.133.305.38.257a59.105 59.105 0 0 1 2.505-.442c.303-.046.373-.144.315-.45-.215-1.149-.391-2.307-.601-3.457-.056-.307.038-.406.336-.452 1.084-.168 2.164-.365 3.245-.545.25-.041.39-.101.313-.415-.113-.468-.171-.95-.242-1.427-.033-.22-.091-.325-.365-.271-1.005.191-2.017.348-3.025.523-.686.119-.684.124-.802-.592-.023-.145-.053-.288-.081-.431-.133-.686-.132-.675.543-.784 1.239-.204 2.479-.419 3.718-.633.149-.025.329-.012.277-.278-.114-.589-.206-1.181-.302-1.772-.022-.138-.073-.222-.226-.195zM12.633 38.627c.153.037.225.049.294.072 2.034.685 4.068 1.368 6.099 2.064.257.088.352.034.432-.216.253-.793.52-1.582.805-2.364.092-.252.045-.361-.209-.446-3.226-1.082-6.449-2.17-9.67-3.267-.233-.08-.335-.052-.411.188a51.572 51.572 0 0 1-.642 1.91c-.069.191-.05.319.092.467.293.308.523.662.719 1.041.492.953.58 1.983.584 3.026.001.262.072.392.33.469a24.54 24.54 0 0 1 1.535.523c.344.128.437.033.443-.331a10.893 10.893 0 0 0-.401-3.136zm4.296 24.44c-.307-.928-.576-1.727-.835-2.528-.324-1.005-.316-.999.565-1.61.686-.476 1.356-.972 2.139-1.533-1.222 0-2.302-.011-3.381.007-.279.004-.424-.075-.5-.352-.12-.435-.271-.862-.413-1.293-.193-.583-.391-1.166-.626-1.866-.356 1.087-.683 2.04-.978 3.001-.112.366-.258.554-.69.515-.565-.052-1.14-.014-1.71-.015H9.054c.043.078.047.094.057.101.629.451 1.264.894 1.887 1.352.327.241.85.393.931.743.079.343-.197.77-.324 1.157-.24.738-.484 1.474-.761 2.316.905-.548 1.723-1.001 2.491-1.527.423-.289.728-.239 1.125.022.766.506 1.563.962 2.469 1.51zm71.242-.076.086-.051c-.324-.966-.638-1.936-.979-2.895-.124-.348-.122-.57.244-.782.49-.285.935-.65 1.398-.981l1.124-.8c-1.018-.089-2.007-.128-2.991-.073-.526.029-.727-.147-.863-.635-.261-.93-.597-1.838-.943-2.88-.351 1.057-.686 1.975-.952 2.911-.128.451-.309.631-.802.603-.86-.052-1.726-.02-2.59-.017-.147.001-.308-.037-.482.075.771.545 1.508 1.069 2.247 1.591.71.5.709.498.436 1.305-.293.866-.579 1.736-.902 2.702.962-.58 1.833-1.088 2.682-1.629.275-.176.481-.159.744.006.842.528 1.694 1.036 2.543 1.55z"/>
  <path fill-rule="evenodd" clip-rule="evenodd" fill="#FFFFFF" d="M73.367 34.641c1.767 2.721 3.054 5.65 3.802 8.81.845 3.558 1.016 7.145.457 10.763-1.009 6.542-3.959 12.06-8.821 16.536-3.52 3.24-7.626 5.421-12.293 6.525-5.244 1.242-10.423 1.002-15.521-.736-4.476-1.526-8.302-4.064-11.502-7.541a27.555 27.555 0 0 1-5.928-10.041 27.806 27.806 0 0 1-1.331-11.469c.496-5.364 2.375-10.186 5.619-14.481a26.829 26.829 0 0 1 2.326-2.68c-.038.806.093 1.578.513 2.276.157.26.151.422-.055.668-4.975 5.95-7.049 12.796-5.903 20.46 1.299 8.688 6.006 15.064 13.733 19.224.244.131.44.131.692.032.379-.149.779-.249 1.171-.365.211-.062.348-.057.244.238-.078.22-.086.459-.066.694.023.274.254.306.441.352.242.059.17-.177.216-.292.083-.201.143-.414.23-.614.284-.649.681-1.191 1.387-1.438.277-.098.412-.044.475.277.177.903.411 1.796.581 2.699.069.367.308.294.52.28.283-.017.141-.243.13-.369-.127-1.411-.4-2.776-1.223-3.978-.271-.395-.223-.47.236-.526.548-.07.918-.438.902-.923-.434.242-.898.374-1.373.453-1.72.283-3.308.122-4.474-1.391-.043-.056-.11-.095-.171-.134-.251-.166-.333-.398-.264-.685.069-.289.332-.255.533-.284.77-.109 1.547-.096 2.322-.135.76-.038 1.495-.046 2.054.591.012.014.054.002.107.002.039-.499-.246-.792-.64-.99a3.159 3.159 0 0 0-2.267-.224c-1.53.409-3.085.521-4.656.447-1.216-.058-2.42-.214-3.541-.743-.553-.26-1.033-.608-1.34-1.154-.513-.913-.322-1.668.567-2.209.488-.296 1.015-.523 1.546-.727 1.601-.611 2.923-1.585 3.928-2.976.156-.217.33-.276.587-.273 1.128.015 2.254-.019 3.353-.322.397-.109.78-.256 1.086-.543.125-.117.305-.266.214-.436-.074-.138-.296-.097-.446-.057-.423.113-.838.256-1.261.37-.844.227-1.669.561-2.569.497-.707-.05-1.219-.388-1.47-1.063-.249-.671-.172-1.294.343-1.827a3.37 3.37 0 0 1 .925-.657c.778-.393 1.609-.616 2.462-.759.199-.033.298-.058.273-.318-.107-1.112.275-2.07 1.03-2.879.324-.348.715-.598 1.196-.692.63-.124.819-.021.969.612.192.815.522 1.552 1.139 2.135.306.291.708.555.186.997-.009.009.011.052.028.121a11.263 11.263 0 0 1 2.425-1.078c3.066-.926 5.953-.676 8.563 1.329.242.186.4.091.62-.037-.438-.467-.899-.834-1.452-1.091 2.685-2.926 2.403-7.261-.323-9.778-1.324-1.224-2.899-1.857-4.706-1.832-2.694.037-4.678 1.326-6.063 3.602-1.772-2.066-4.572-2.515-6.754-1.277a.645.645 0 0 1-.159.071c-.396.102-.504.007-.476-.397.028-.389.149-.743.367-1.065.434-.645 1.067-1.025 1.753-1.341.133-.061.326-.043.395-.266-.474.041-.502-.247-.465-.597.019-.173.002-.351.002-.526 0-.775.252-1.103.99-1.321.251-.074.367-.056.355.259-.024.637-.007 1.275-.007 1.985.275-.19.504-.287.703-.494 1.169-1.227 2.3-2.502 3.783-3.381a9.917 9.917 0 0 1 3.542-1.297c-.267.727-.534 1.403-.764 2.092-.229.688-.48 1.383-.285 2.208 1.413-1.652 2.956-3.03 4.729-4.144 1.948-1.225 4.458-2.137 5.743-2.086-.796.927-1.184 2.031-1.374 3.215-.03.191-.082.459.154.542.189.065.278-.174.381-.305.262-.333.508-.683.875-.912.082-.051.181-.243.309-.039h-.001c-.241.203-.253.508-.331.779-.276.949-.115 1.949-.327 2.91-.047.214.285.237.393.416.04.065.132-.15.17-.247.233-.604.571-1.151.916-1.694.054-.085.093-.25.253-.168.141.071.021.179.009.268a.638.638 0 0 1-.062.209c-.883 1.805-1.041 3.727-.912 5.692.062.95.228 1.886.453 2.811.024.102.019.25.184.259.113.006.209-.033.215-.163.031-.722.214-1.382.655-1.979.173-.234.273-.512.57-.626l.088.073c-.285.57-.42 1.182-.499 1.808-.287 2.262-.201 4.525-.033 6.789.07.957.18 1.91.271 2.874.308-.079.361-.304.432-.528.409-1.306 1.289-2.086 2.635-2.341 1.17-.22 1.958.208 2.406 1.312.812 1.995-.259 4.627-2.23 5.481-.975.423-1.974.143-2.625-.734-.061-.08-.105-.191-.216-.203-.129-.014-.315-.085-.23.198.303 1.006.048 1.968-.264 2.919-.309.943-.707 1.856-.946 2.823-.343 1.395-.513 2.817-.65 4.243a70.79 70.79 0 0 0-.309 5.168c-.003.112-.069.274.162.271.179-.003.315-.017.318-.246.003-.159.032-.319.052-.479.167-1.395.373-2.784.486-4.182.064-.787.51-.686.922-.352.619.501 1.009 1.163 1.313 1.887.263.622.387 1.281.524 1.939.621-.234.627-.235.515-.829-.061-.315-.146-.626-.221-.938l.081-.065c.463.112.866.354 1.243.625.231.167.39.141.612-.004 1.616-1.043 3.133-2.211 4.466-3.598 5.948-6.187 8.321-13.545 7.219-22.051-.117-.902-.381-1.761-.352-2.718.081-2.615-.683-4.965-2.808-6.697-.117-.095-.116-.165-.054-.29.334-.652.687-1.288 1.238-1.789zm-20.469 19.63c-.747.253-1.396.418-2.065.471a9.782 9.782 0 0 1-2.017-.021c-.649-.079-1.294-.196-2.001-.307 1.573 1.305 4.769 1.258 6.083-.143z"/>
  <path fill-rule="evenodd" clip-rule="evenodd" fill="#172033" d="M73.367 34.641c-.551.5-.904 1.137-1.234 1.79-.063.125-.063.194.054.29 2.125 1.732 2.889 4.083 2.808 6.697-.029.957.234 1.816.352 2.718C76.45 54.642 74.076 62 68.128 68.187c-1.333 1.387-2.85 2.555-4.466 3.598-.223.145-.381.171-.612.004-.377-.271-.78-.513-1.243-.625l-.09-.037.009.103c.074.313.16.623.221.938.112.594.106.595-.515.829-.138-.658-.262-1.317-.524-1.939-.305-.724-.694-1.386-1.313-1.887-.412-.334-.857-.436-.922.352-.113 1.397-.319 2.787-.486 4.182-.02.159-.049.319-.052.479-.003.229-.14.243-.318.246-.231.004-.165-.158-.162-.271a70.79 70.79 0 0 1 .309-5.168c.138-1.426.308-2.849.65-4.243.239-.967.638-1.88.946-2.823.312-.951.566-1.913.264-2.919-.085-.283.102-.212.23-.198.11.012.155.123.216.203.651.877 1.65 1.157 2.625.734 1.972-.854 3.042-3.486 2.23-5.481-.448-1.104-1.236-1.531-2.406-1.312-1.346.255-2.226 1.035-2.635 2.341-.07.225-.124.449-.432.528-.091-.964-.2-1.917-.271-2.874-.168-2.264-.254-4.527.033-6.789.079-.626.214-1.238.499-1.808.016-.036.054-.093.044-.103-.051-.054-.097-.021-.132.03-.297.114-.397.393-.57.626-.441.597-.624 1.257-.655 1.979-.006.13-.102.169-.215.163-.165-.009-.159-.157-.184-.259a16.194 16.194 0 0 1-.453-2.811c-.129-1.966.029-3.888.912-5.692a.663.663 0 0 0 .062-.209c.013-.089.132-.197-.009-.268-.16-.082-.199.083-.253.168-.345.543-.683 1.09-.916 1.694-.038.097-.13.312-.17.247-.107-.178-.439-.201-.393-.416.212-.96.051-1.961.327-2.91.078-.271.09-.576.331-.779l-.072-.065c-.001.009-.005.024-.001.026.023.015.049.026.074.04-.128-.204-.227-.012-.309.039-.367.229-.613.579-.875.912-.103.131-.191.37-.381.305-.236-.082-.185-.351-.154-.542.19-1.185.578-2.288 1.374-3.215-1.285-.051-3.795.861-5.743 2.086-1.772 1.114-3.315 2.491-4.729 4.144-.195-.825.056-1.521.285-2.208.23-.689.497-1.365.764-2.092a9.924 9.924 0 0 0-3.542 1.297c-1.483.879-2.614 2.154-3.783 3.381-.198.207-.428.304-.703.494 0-.709-.017-1.348.007-1.985.012-.315-.104-.333-.355-.259-.738.218-.99.546-.99 1.321 0 .175.017.353-.002.526-.038.35-.009.638.465.597-.069.222-.262.205-.395.266-.687.315-1.32.696-1.753 1.341a2.147 2.147 0 0 0-.367 1.065c-.029.404.079.499.476.397a.645.645 0 0 0 .159-.071c2.183-1.238 4.982-.789 6.754 1.277 1.385-2.276 3.369-3.565 6.063-3.602 1.806-.025 3.381.608 4.706 1.832 2.727 2.517 3.008 6.852.323 9.778.553.257 1.015.624 1.452 1.091-.22.128-.378.223-.62.037-2.61-2.005-5.497-2.255-8.563-1.329-.849.255-1.649.627-2.425 1.078-.018-.069-.038-.112-.028-.121.523-.442.121-.706-.186-.997-.617-.583-.946-1.319-1.139-2.135-.15-.633-.338-.736-.969-.612-.48.094-.872.344-1.196.692-.755.809-1.138 1.767-1.03 2.879.025.261-.075.285-.273.318-.854.143-1.684.366-2.462.759a3.37 3.37 0 0 0-.925.657c-.516.533-.592 1.156-.343 1.827.25.676.763 1.014 1.47 1.063.9.063 1.725-.271 2.569-.497.423-.114.838-.257 1.261-.37.15-.04.373-.081.446.057.09.17-.09.318-.214.436-.306.287-.689.434-1.086.543-1.098.304-2.224.337-3.353.322-.257-.003-.431.057-.587.273-1.005 1.391-2.328 2.364-3.928 2.976-.531.203-1.058.431-1.546.727-.889.541-1.08 1.296-.567 2.209.307.546.787.895 1.34 1.154 1.121.529 2.325.686 3.541.743 1.57.073 3.125-.038 4.656-.447a3.154 3.154 0 0 1 2.267.224c.394.198.679.491.64.99-.053 0-.095.012-.107-.002-.56-.637-1.294-.629-2.054-.591-.775.039-1.552.025-2.322.135-.201.029-.463-.005-.533.284-.069.286.013.519.264.685.061.039.127.078.171.134 1.166 1.513 2.753 1.674 4.474 1.391.475-.079.939-.211 1.373-.453.016.485-.354.853-.902.923-.459.057-.507.132-.236.526.823 1.201 1.096 2.566 1.223 3.978.011.126.153.353-.13.369-.212.014-.451.087-.52-.28-.17-.903-.404-1.796-.581-2.699-.063-.321-.198-.375-.475-.277-.706.246-1.104.788-1.387 1.438-.087.2-.147.413-.23.614-.046.115.025.351-.216.292-.187-.046-.418-.077-.441-.352a1.654 1.654 0 0 1 .066-.694c.104-.295-.032-.3-.244-.238-.392.116-.792.216-1.171.365-.252.099-.449.099-.692-.032-7.727-4.159-12.434-10.536-13.733-19.224-1.146-7.664.929-14.51 5.903-20.46.206-.246.211-.408.055-.668-.42-.698-.551-1.47-.513-2.276.048-.168.105-.334.144-.505.111-.496.108-.496.483-.176.235.597.745.96 1.181 1.385.003-.036.114-.023.042-.094a2.81 2.81 0 0 0-.04.097c.146-.142-.01-.239-.066-.333a4.218 4.218 0 0 1-.551-1.482c-.261-3.105.459-5.66.873-7.833.203 1.1.27 2.125.373 3.144a5.35 5.35 0 0 0 1.005 2.637c.217-2.059.541-4.083 1.449-5.961.373-.669.749-1.336 1.223-1.943.175-.224.422-.4.507-.69.385-.211.63-.592.99-.829.435-.287.895-.539 1.343-.806.05.277-.012.548-.046.822-.124.976-.307 1.944-.323 2.932-.116 1.122-.32 2.245.008 3.365.024.082.07.157.105.236.117.668.516 1.18.886 1.761l.774-2.388c.486-.889.918-1.809 1.474-2.661.665-1.021 1.444-1.934 2.384-2.709.109-.09.263-.151.204-.342.167.115.294.019.43-.075.843-.583 1.832-.631 2.898-.813-.456.42-.837.757-1.2 1.112-.16.157-.381.282-.389.551-.568.566-.643 1.317-.776 2.057.892-.834 1.814-1.596 3.018-1.909.339-.09.683-.164 1.015-.274.21-.07.255.001.24.186-1.086.841-1.983 1.805-2.103 3.269-.151.084-.148.243-.169.38-.086.546-.154 1.096-.246 1.641-.051.301.018.406.351.369 1.365-.154 2.734-.134 4.104-.066.444.022.882.135 1.33.065-.037.024-.036.047.004.062.011.004.026-.005.041-.008l-.056-.047c-.139-.334-.513-.482-.678-.819 1.348-.271 2.658-.267 3.97.069 1.27.326 2.419.917 3.556 1.545.017.02.044.06.051.057.053-.027.032-.068.011-.107-.144-.488-.416-.933-.473-1.449l1.767.615c.632.222 1.153.647 1.734.962.949.835 1.721 1.795 2.112 3.02.063.196.22.2.376.236.717.169.763.248.604.977-.011.054-.017.109-.035.227.725-.35 1.399-.666 1.776-1.376.547-.511.715-1.186.781-1.888.037-.404.007-.813.007-1.277.856.519 1.421 1.17 1.572 2.156.168 1.096.037 2.186-.005 3.278l-.19 1.085c.278-.219.518-.374.678-.619.638-.334 1.256-.7 1.965-.894.471-.129.96-.029 1.417-.19h1.031l-.809.629c-.45.241-.861.541-1.181.937-.185.229-.579.456-.465.722.096.224.53.084.812.091.622.014 1.223.272 1.855.167.145.17.395.059.552.205-.05.108-.211.109-.222.245-.887.352-1.672.85-2.295 1.58zm-14.958-2.32c.014.014.028.029.044.043-.427.896-1.071 1.691-1.32 2.764.29-.129.508-.232.73-.323.23-.094.461-.189.698-.259.22-.065.447-.098.795-.169-1.033.704-1.738 2.308-1.578 3.422.568-.643 1.097-1.335 2.057-1.499-.02.088-.022.127-.036.161-1.016 2.589-1.35 5.286-1.259 8.048.004.123-.052.307.112.341.182.038.166-.173.214-.276.589-1.316 1.786-1.943 2.938-2.667.063.395.072.406-.063.523-.742.642-1.093 1.509-1.354 2.413-.638 2.214-.613 4.481-.491 6.752.034.632.102 1.263.162 1.993.856-1.315 2.063-1.631 3.415-1.544 1.487.095 2.304.97 2.57 2.438.789-.527 1.419-1.124 1.887-1.882.516-.833.693-1.725.466-2.691-.031-.135-.239-.323.033-.448.253-.117.428.011.558.206.225.335.291.727.355 1.119.095.571.089 1.151.119 1.852.89-1.283 1.547-2.533 1.719-3.989.108-.915-.044-1.781-.619-2.533-.103-.133-.146-.288-.042-.396.09-.094.216.037.308.093.723.439 1.244 1.059 1.589 1.825.133.295.226.608.372 1.01.42-1.752.721-3.417.473-5.118-.171-1.169-.628-2.191-1.87-2.643 1.413-.501 2.16.552 3.095 1.389-.3-2.157-1.024-3.98-2.766-5.267-.21-.154-.284-.266-.168-.524.567-1.268 1.36-2.348 2.51-3.15.101-.069.242-.102.286-.276-.928-.104-1.839-.227-2.81-.042.511-.88 1.066-1.643 1.852-2.364a5.132 5.132 0 0 0-2.501 1.058c-.697.534-1.188 1.247-1.653 2.09-.045-.166-.072-.208-.063-.243.394-1.625.615-3.271.624-4.944.003-.543-.027-1.085-.202-1.604-.079-.23-.133-.497-.414-.621-.191 2.176-2.037 4.085-3.998 4.158.114-.254.237-.503.34-.76.243-.61.207-.679-.444-.761-.201-.025-.291-.084-.354-.29-.638-2.057-2.045-3.355-4.048-4.053-.103-.035-.205-.119-.326-.025.231.741.616 1.418.981 2.234-2.389-1.81-4.808-3.147-7.912-2.917.394.467.752.809 1.005 1.267-.649 0-1.26-.014-1.867.003-1.102.031-2.174.166-3.197.653-.681.324-1.428.513-2.175.663-.233.047-.425.068-.425-.288.002-2.34.073-4.662 1.463-6.747-1.407.603-2.36 1.667-3.294 2.902-.007-1.692.214-3.193 1.277-4.478-.242-.035-.386.078-.537.154-.729.365-1.352.874-1.894 1.475a15.182 15.182 0 0 0-3.417 6.298c-.166.613-.36 1.219-.542 1.828-.13-.674-.36-1.258-.749-1.796-.334-.462-.566-.984-.744-1.532-.365-1.123-.207-2.264-.119-3.397.079-1.015.214-2.025.326-3.038l-.122-.042c-3.43 2.715-4.224 6.512-4.212 10.681-.609-.471-1.021-1.029-1.373-1.636-.353-.607-.524-1.286-.735-1.951-.197 1.245-.341 2.476-.26 3.722.041.623.201 1.204.532 1.741a4.99 4.99 0 0 0 1.304 1.429c-1.284.043-2.19-.482-2.978-1.414-.03 1.267.467 2.202 1.268 2.987 1.055 1.035 2.133 2.046 3.208 3.061.149.141.285.407.54.28.217-.107.089-.368.126-.559.007-.037-.017-.093.1-.105.252.567.109 1.078-.235 1.561-.346.485-.874.733-1.451 1.036 2.85.419 5.055-.504 6.715-2.775-.068.909-.307 1.761-.291 2.714 1.939-2.479 4.455-3.708 7.454-4.029a.523.523 0 0 0 .444-.286c.238-.403.497-.793.821-1.136.199-.208.421-.325.734-.243-1.152 1.353-2.232 3.521-2.197 4.424.146-.121.281-.229.411-.34a25.152 25.152 0 0 1 3.328-2.43c1.537-.937 3.15-1.662 4.971-1.847a6.54 6.54 0 0 0 1.776-.464zM56.2 48.248c.024-3.325-2.383-6.007-5.692-6.343-2.666-.27-5.134 1.15-6.259 3.604-1.129 2.462-.601 5.336 1.301 7.158.186.179.304.179.517.05 2.642-1.595 5.373-1.702 8.166-.435.255.115.375.085.539-.119.925-1.143 1.419-2.439 1.428-3.915zm-21.233.014c0 .396.038.787.122 1.175.41 1.909 1.95 3.327 3.868 3.554.211.026.378.064.43-.251.309-1.891 1.462-2.996 3.291-3.426.297-.07.354-.18.321-.468-.12-1.049.003-2.074.434-3.044.126-.282.09-.466-.109-.694-1.336-1.524-3.5-2.061-5.443-1.333-1.775.665-2.921 2.431-2.914 4.487zm3.042 5.524c-.319-.358-.618-.676-1.026-.853-.43-.186-.805.008-.9.456-.082.385.054.748.152 1.113.043.161.141.104.23.037a4.776 4.776 0 0 1 1.544-.753z"/>
  <path fill-rule="evenodd" clip-rule="evenodd" fill="#FFFFFF" d="M75.658 33.059c.011-.136.172-.137.222-.245-.157-.146-.407-.034-.552-.205-.344-.637-.764-1.234-1.021-1.917.235-.184.473-.367.809-.629h-1.031c-.529-3.384 1.915-6.451 5.358-6.688 1.782-.122 3.15.72 4.286 2 .672.758 1.222 1.606 1.594 2.555.833 2.128.371 4.057-1.345 5.602-.912.822-1.936 1.478-3.158 1.714-1.865.361-3.378-.324-4.65-1.661-.17-.176-.287-.404-.512-.526zm1.219-3.412c-.018 1.523 1.391 2.787 2.731 2.418a5.03 5.03 0 0 0 2.791-1.932c.542-.75.491-1.692-.065-2.499-.613-.889-1.42-1.253-2.367-.985-1.145.323-2.063 1.003-2.764 1.965a1.61 1.61 0 0 0-.326 1.033zM46.335 18.729c.008-.269.229-.394.389-.551.363-.355.744-.692 1.2-1.112-1.066.182-2.055.23-2.898.813-.135.093-.262.19-.43.075-.629-.639-1.189-1.316-1.376-2.233-.09-.445-.189-.887-.2-1.342-.047-1.945-.083-3.891-.142-5.836-.01-.33.08-.424.41-.424.863 0 1.728-.016 2.588-.078.425-.031.507.125.514.503.028 1.771.08 3.54.123 5.31.004.19.003.38.01.571.062 1.568 1.374 2.396 2.831 1.789.74-.309 1.057-.823 1.038-1.747-.027-1.551-.067-3.101-.104-4.652-.012-.512-.018-1.024-.041-1.536-.012-.239.064-.34.317-.344.951-.014 1.902-.035 2.853-.076.294-.013.336.12.34.361.042 2.106.135 4.213.125 6.319-.011 2.284-1.529 3.916-3.792 4.205-.087.011-.172.031-.258.047.015-.185-.03-.256-.24-.186-.332.11-.675.184-1.014.274-.747-.052-1.495-.101-2.243-.15zM38.97 82.74c-.108 1.781-.734 3.362-1.962 4.658-1.136 1.199-2.585 1.55-4.18 1.238a7.7 7.7 0 0 1-3.35-1.548c-1.084-.86-1.641-2.015-1.662-3.386-.028-1.756.597-3.31 1.761-4.599 1.505-1.667 3.649-1.969 5.954-.935 1.352.606 2.522 1.415 3.113 2.854.225.548.339 1.119.326 1.718zm-8.053 1.16c.009.997.435 1.605 1.226 1.968.78.356 1.585.397 2.204-.237.9-.921 1.431-2.064 1.473-3.372.03-.907-.479-1.504-1.289-1.851-.834-.357-1.631-.271-2.256.399-.833.892-1.235 1.996-1.358 3.093zM69.659 13.519c1.307.069 2.55.86 3.745 1.74.826.607 1.515 1.332 1.802 2.356.205.727.051 1.417-.212 2.099-.072.188-.157.206-.323.109-.81-.468-1.621-.932-2.439-1.384-.167-.092-.171-.186-.136-.351.219-1.039-.336-1.907-1.363-2.13-.351-.077-.677-.027-.889.308-.198.315-.074.608.139.842.511.561 1.053 1.094 1.571 1.647.511.543 1.005 1.102 1.378 1.753 1.063 1.857.143 4.023-1.928 4.574-.731.194-1.459.191-2.163-.04-1.745-.575-3.259-1.535-4.388-2.995-.881-1.14-.805-2.419-.287-3.705.095-.234.224-.218.403-.116.789.446 1.576.892 2.369 1.33.181.1.234.188.165.412-.37 1.225.122 2.17 1.32 2.594.51.18 1.068.069 1.334-.265.286-.361.256-.837-.095-1.338-.337-.482-.771-.877-1.175-1.299-.659-.686-1.289-1.394-1.691-2.274-.877-1.927.495-3.96 2.863-3.867zM67.05 76.487c.143-.027.163.089.205.176.257.523.5 1.056.775 1.569.148.276-.077.3-.212.365-1.363.667-2.725 1.339-4.101 1.979-.37.173-.495.329-.248.703.207.313.247.842.56.946.311.103.678-.258 1.017-.42 1.053-.504 2.102-1.02 3.146-1.542.228-.112.352-.107.463.155.188.443.409.875.638 1.299.135.252.082.366-.179.489-1.294.613-2.574 1.255-3.866 1.874-.238.114-.349.194-.181.476.226.373.413.774.577 1.179.122.303.246.354.549.202 1.422-.714 2.862-1.393 4.285-2.107.294-.147.424-.112.553.189.205.482.43.959.688 1.415.168.296.09.411-.191.547-2.093 1.004-4.177 2.027-6.27 3.034-.43.208-.911.676-1.285.524-.327-.133-.459-.767-.664-1.186-1.25-2.559-2.49-5.122-3.75-7.676-.174-.352-.139-.497.236-.676 2.32-1.105 4.626-2.242 6.936-3.368l.319-.146zM75.863 71.541c-.096.072-.195.135-.279.213-1.133 1.057-2.258 2.123-3.399 3.17-.238.218-.279.36-.021.582.307.266.517.793.864.815.352.023.617-.471.913-.744.844-.78 1.683-1.565 2.515-2.356.173-.165.294-.126.438.024.335.346.668.693 1.019 1.022.219.206.209.341-.016.548-1.036.947-2.045 1.922-3.083 2.864-.271.246-.289.399-.015.643.294.263.57.551.81.862.238.312.393.247.644.007 1.129-1.081 2.284-2.133 3.413-3.215.245-.234.388-.264.619.013.345.416.725.802 1.106 1.185.176.178.167.286-.017.457a1658.538 1658.538 0 0 0-5.978 5.605c-.176.165-.277.178-.452-.009a1912.286 1912.286 0 0 0-6.745-7.198c-.174-.184-.164-.279.018-.448 1.956-1.823 3.907-3.652 5.853-5.486.186-.175.292-.206.476.011.35.411.736.793 1.106 1.187.059.063.114.132.211.248zM30.536 23.518c.006.576-.168 1.102-.464 1.58-.761 1.225-1.786 2.168-3.132 2.704-1.073.427-2.146.3-3.116-.305-1.676-1.044-2.938-2.485-3.811-4.252-.549-1.113-.517-2.236.134-3.31.724-1.195 1.714-2.108 3.001-2.657 1.065-.455 2.139-.363 3.118.239 1.817 1.117 3.16 2.665 3.998 4.634.102.24.166.5.219.756.039.198.036.406.053.611zm-7.018-3.96c-.211.024-.42.056-.614.184-.639.422-.795 1.083-.367 1.844.738 1.313 1.732 2.417 2.875 3.391.2.171.431.3.68.391.441.161.871.15 1.241-.16.375-.315.512-.731.425-1.221a2.081 2.081 0 0 0-.273-.735 12.901 12.901 0 0 0-2.91-3.299 1.736 1.736 0 0 0-1.057-.395zM62.165 16.692c-1.103-.002-2.125-.382-3.161-.685-.352-.103-.503-.091-.602.314-.253 1.021-.569 2.026-.845 3.042-.063.23-.154.316-.396.247-.94-.276-1.881-.545-2.825-.807-.221-.061-.255-.154-.191-.372a2307.82 2307.82 0 0 0 2.737-9.66c.073-.256.172-.308.432-.232 1.881.547 3.773 1.052 5.646 1.624 1.026.313 1.94.835 2.365 1.917.859 2.19-.823 4.641-3.16 4.612zm-1.462-2.504c.818.018 1.226-.266 1.37-.859.134-.546-.112-1.016-.689-1.308-.445-.226-.938-.312-1.407-.465-.179-.058-.234.046-.273.184-.172.602-.34 1.205-.516 1.805-.049.167-.033.266.161.321.49.138.974.297 1.354.322zM13.087 29.744c-.085-1.571 1.554-4.415 3.336-4.918 1.063-.3 2.057-.119 3.035.288a10.822 10.822 0 0 1 3.519 2.335c1.416 1.413 1.677 2.731.836 4.538-.528 1.134-1.211 2.173-2.38 2.775-.969.499-1.969.509-2.977.157-1.828-.638-3.422-1.635-4.656-3.15-.516-.632-.707-1.242-.713-2.025zm7.426 2.614c.721.005 1.221-.425 1.275-1.109.045-.563-.248-.991-.633-1.336-.835-.747-1.765-1.363-2.755-1.889-.465-.247-.933-.484-1.461-.56-.699-.099-1.283.29-1.447.975-.14.586.159 1.02.556 1.387 1.081.999 2.312 1.771 3.657 2.361.252.113.527.167.808.171zM23.916 70.732a3.59 3.59 0 0 1 1.699.368c1.657.816 2.956 1.997 3.549 3.793.335 1.019.108 2.023-.304 2.99-.093.216-.198.188-.364.085a96.235 96.235 0 0 0-2.018-1.235c-.181-.107-.187-.205-.118-.39.333-.898.127-1.654-.586-2.237-.677-.554-1.548-.606-2.326-.12a6.196 6.196 0 0 0-2.1 2.193c-.446.773-.374 1.45.179 2.107.607.723 1.312.939 2.147.661.055-.019.109-.042.165-.06.283-.086.547-.449.8-.309.229.128.321.502.472.769.259.458.504.924.781 1.37.162.26.121.391-.148.538-1.841 1.005-3.543.844-5.158-.511a9.374 9.374 0 0 1-1.285-1.312c-1.3-1.619-1.473-3.507-.417-5.311.896-1.531 2.124-2.706 3.864-3.25a3.731 3.731 0 0 1 1.168-.139zM88.628 34.221c.182.01.171.17.203.285.476 1.672.948 3.345 1.422 5.017.255.899.5 1.802.775 2.695.082.268.011.358-.239.42a24.91 24.91 0 0 0-1.56.44c-.257.082-.343.036-.417-.235-.387-1.423-.813-2.836-1.199-4.259-.09-.326-.211-.386-.516-.271a8.504 8.504 0 0 1-1.055.296c-.276.063-.332.185-.25.462.353 1.176.667 2.361 1.02 3.537.084.278.035.386-.244.454-.482.116-.961.252-1.432.408-.241.08-.332.021-.397-.217-.324-1.183-.676-2.358-.99-3.544-.089-.33-.203-.397-.533-.296-1.132.343-2.277.642-3.412.98-.294.087-.406.036-.485-.271-.234-.904-.5-1.801-.767-2.696-.058-.197-.077-.325.166-.394 3.262-.918 6.521-1.842 9.781-2.766.042-.012.083-.029.129-.045zM49.499 82.271c-.065.497-.143.989-.191 1.483-.025.266-.116.342-.39.303-1.332-.191-2.667-.35-3.999-.55-.313-.047-.422.027-.446.33-.029.38-.073.759-.145 1.131-.049.257.033.328.277.359 1.117.135 2.231.297 3.349.431.272.032.388.091.326.401-.092.457-.148.924-.182 1.39-.021.292-.115.367-.406.323-1.056-.157-2.119-.272-3.173-.437-.406-.063-.553.021-.595.459-.108 1.135-.287 2.263-.425 3.396-.032.262-.114.333-.391.29a48.017 48.017 0 0 0-2.48-.32c-.32-.034-.413-.137-.365-.468.261-1.823.498-3.65.744-5.476.188-1.392.382-2.783.555-4.175.033-.27.119-.341.384-.305 2.449.332 4.899.659 7.35.977.37.049.173.292.203.458zM58.136 80.522c.153-.026.204.058.227.194.096.592.188 1.184.302 1.772.052.267-.128.253-.277.278-1.239.214-2.479.429-3.718.633-.675.109-.676.099-.543.784.028.143.058.286.081.431.118.716.116.711.802.592 1.009-.176 2.021-.332 3.025-.523.274-.054.332.052.365.271.071.477.129.959.242 1.427.076.314-.063.374-.313.415-1.081.18-2.161.377-3.245.545-.298.046-.392.146-.336.452.21 1.15.386 2.308.601 3.457.058.307-.013.404-.315.45-.838.128-1.673.278-2.505.442-.247.048-.339-.016-.38-.257-.291-1.716-.591-3.429-.886-5.145-.256-1.484-.491-2.971-.769-4.451-.069-.372.025-.463.379-.521 2.367-.39 4.729-.804 7.092-1.211.056-.006.113-.022.171-.035zM36.797 18.573c-.085.291-.332.466-.507.69-.474.607-.85 1.274-1.223 1.943-2.008-.535-3.185-1.912-3.845-3.807-.559-1.604-.641-3.179.344-4.668.607-.918 1.468-1.536 2.452-1.994 1.207-.563 2.445-.979 3.808-.799 1.099.145 1.956.723 2.701 1.505.122.128.155.219-.023.334-.75.482-1.495.971-2.238 1.464-.155.104-.243.061-.372-.059-.808-.739-1.642-.821-2.611-.279-.831.464-1.209 1.304-1.023 2.314.168.917.52 1.767 1.05 2.531.352.509.799.899 1.487.825zM12.633 38.627c.296 1.073.419 2.095.4 3.138-.007.364-.099.458-.443.331a23.698 23.698 0 0 0-1.535-.523c-.258-.077-.329-.208-.33-.469-.004-1.043-.092-2.074-.584-3.026a4.463 4.463 0 0 0-.719-1.041c-.142-.148-.161-.276-.092-.467.227-.632.44-1.269.642-1.91.076-.241.178-.268.411-.188 3.221 1.096 6.445 2.185 9.67 3.267.255.085.301.194.209.446a63.21 63.21 0 0 0-.805 2.364c-.08.25-.175.304-.432.216-2.03-.697-4.065-1.379-6.099-2.064-.068-.025-.14-.037-.293-.074zM16.929 63.067c-.906-.549-1.704-1.005-2.469-1.511-.397-.262-.702-.312-1.125-.022-.768.526-1.586.979-2.491 1.527.277-.843.521-1.578.761-2.316.126-.388.403-.814.324-1.157-.082-.351-.604-.502-.931-.743-.623-.458-1.257-.9-1.887-1.352-.01-.007-.014-.022-.057-.101H10.5c.571.001 1.145-.037 1.71.015.432.039.579-.148.69-.515.295-.961.622-1.914.978-3.001.235.7.433 1.283.626 1.866.142.431.293.858.413 1.293.076.276.221.355.5.352 1.079-.018 2.159-.007 3.381-.007-.782.562-1.453 1.058-2.139 1.533-.881.611-.89.605-.565 1.61.26.803.528 1.602.835 2.529zM88.171 62.991c-.849-.515-1.701-1.022-2.544-1.55-.263-.165-.469-.182-.744-.006-.849.541-1.72 1.049-2.682 1.629.323-.966.609-1.836.902-2.702.273-.807.274-.805-.436-1.305-.739-.521-1.477-1.046-2.247-1.591.175-.112.335-.074.482-.075.864-.003 1.729-.035 2.59.017.493.028.674-.151.802-.603.267-.937.602-1.854.952-2.911.347 1.042.683 1.95.943 2.88.137.487.337.664.863.635a20.869 20.869 0 0 1 2.991.073l-1.124.8c-.464.331-.908.696-1.398.981-.366.212-.368.435-.244.782.341.959.654 1.929.979 2.895a1.91 1.91 0 0 1-.085.051zM53.099 24.447c-.448.069-.886-.043-1.33-.065-1.369-.068-2.739-.087-4.104.066-.333.038-.402-.067-.351-.369.092-.545.159-1.095.246-1.641.021-.137.019-.296.169-.38.334-.005.669 0 1.002-.016 3.588-.18 7.077.333 10.47 1.51.12.042.26.059.323.199.057.516.329.961.473 1.449a.302.302 0 0 0-.062.05c-1.137-.628-2.286-1.22-3.556-1.545-1.312-.335-2.622-.339-3.97-.069.165.337.539.485.678.819l.012-.008zM38.761 20.691c.016-.987.199-1.956.323-2.932.034-.273.097-.544.046-.822.007-.218.024-.437.02-.655-.011-.626-.015-.625.597-.682.711-.066 1.425-.116 2.133-.208.361-.047.445.103.458.418.07 1.811-.594 3.238-2.163 4.202-.447.276-.915.51-1.414.679zM67.859 28.412c-.377.71-1.052 1.026-1.776 1.376.019-.118.024-.173.035-.227.158-.729.112-.808-.604-.977-.156-.037-.313-.041-.376-.236-.392-1.225-1.163-2.185-2.112-3.02.203-.021.362.088.527.18a28.132 28.132 0 0 1 3.984 2.69c.1.081.179.198.322.214zM40.535 23.665l-.774 2.388c-.37-.581-.77-1.093-.886-1.761l1.66-.627zM31.983 31.032c-.437-.426-.946-.789-1.181-1.386l.565-.426c.09.529.274 1.021.551 1.482.057.093.212.19.066.333l-.001-.003zM70.702 31.147c-.16.246-.399.4-.678.619l.19-1.085.488.466z"/>
  <path fill-rule="evenodd" clip-rule="evenodd" fill="#172033" d="M52.898 54.271c-1.314 1.4-4.511 1.447-6.083.144.707.11 1.352.228 2.001.307.67.084 1.345.075 2.017.021.67-.054 1.318-.219 2.065-.472z"/>
  <path fill-rule="evenodd" clip-rule="evenodd" fill="#FFFFFF" d="M58.409 32.321a6.385 6.385 0 0 1-1.778.46c-1.82.186-3.434.91-4.971 1.847a25.218 25.218 0 0 0-3.328 2.43c-.13.112-.265.219-.411.34-.036-.902 1.044-3.071 2.197-4.424-.313-.082-.536.035-.734.243-.324.342-.583.733-.821 1.136a.525.525 0 0 1-.444.286c-2.999.32-5.515 1.55-7.454 4.029-.016-.953.223-1.805.291-2.714-1.661 2.271-3.865 3.194-6.715 2.775.578-.302 1.105-.551 1.451-1.036.344-.483.487-.994.235-1.561-.116.012-.092.068-.1.105-.037.191.091.452-.126.559-.255.127-.39-.14-.54-.28-1.075-1.014-2.153-2.026-3.208-3.061-.801-.785-1.297-1.721-1.268-2.987.787.932 1.694 1.458 2.978 1.414a5.003 5.003 0 0 1-1.304-1.429c-.332-.537-.491-1.118-.532-1.741-.081-1.246.063-2.477.26-3.722.211.665.382 1.344.735 1.951.353.606.764 1.165 1.373 1.636-.012-4.169.782-7.965 4.212-10.681l.122.042c-.111 1.013-.247 2.023-.326 3.038-.087 1.134-.246 2.274.119 3.397.177.547.409 1.069.744 1.532.389.538.619 1.122.749 1.796.181-.609.376-1.215.542-1.828a15.194 15.194 0 0 1 3.417-6.298c.542-.601 1.165-1.109 1.894-1.475.151-.076.294-.188.537-.154-1.063 1.285-1.284 2.786-1.277 4.478.934-1.234 1.888-2.299 3.294-2.902-1.39 2.085-1.461 4.407-1.463 6.747 0 .356.192.335.425.288.747-.15 1.495-.338 2.175-.663 1.023-.487 2.095-.622 3.197-.653.607-.017 1.218-.003 1.867-.003-.253-.458-.611-.8-1.005-1.267 3.104-.23 5.523 1.107 7.912 2.917-.365-.816-.75-1.493-.981-2.234.121-.094.224-.01.326.025 2.003.698 3.41 1.996 4.048 4.053.063.206.153.265.354.29.651.082.688.15.444.761-.103.257-.226.506-.34.76 1.961-.073 3.807-1.982 3.998-4.158.281.124.335.391.414.621.175.519.205 1.061.202 1.604a21.408 21.408 0 0 1-.624 4.944c-.009.035.019.077.063.243.466-.843.956-1.556 1.653-2.09a5.123 5.123 0 0 1 2.501-1.058c-.785.721-1.341 1.483-1.852 2.364.971-.185 1.882-.062 2.81.042-.044.174-.186.207-.286.276-1.149.802-1.942 1.882-2.51 3.15-.116.259-.042.37.168.524 1.741 1.286 2.466 3.109 2.766 5.267-.935-.836-1.682-1.89-3.095-1.389 1.242.452 1.699 1.474 1.87 2.643.248 1.701-.053 3.366-.473 5.118-.146-.402-.239-.714-.372-1.01-.345-.767-.866-1.386-1.589-1.825-.092-.056-.218-.187-.308-.093-.104.109-.061.264.042.396.575.752.728 1.618.619 2.533-.172 1.456-.829 2.706-1.719 3.989-.03-.7-.024-1.28-.119-1.852-.064-.392-.131-.783-.355-1.119-.13-.194-.305-.322-.558-.206-.272.125-.064.313-.033.448.228.967.05 1.858-.466 2.691-.468.758-1.098 1.354-1.887 1.882-.267-1.468-1.083-2.343-2.57-2.438-1.352-.087-2.559.229-3.415 1.544-.061-.73-.128-1.361-.162-1.993-.122-2.271-.146-4.539.491-6.752.261-.904.611-1.771 1.354-2.413.135-.117.125-.128.063-.523-1.151.724-2.349 1.35-2.938 2.667-.048.104-.032.314-.214.276-.164-.035-.108-.219-.112-.341-.091-2.762.243-5.458 1.259-8.048.014-.034.017-.073.036-.161-.96.164-1.488.856-2.057 1.499-.16-1.114.545-2.718 1.578-3.422-.348.072-.575.104-.795.169-.237.07-.468.165-.698.259-.223.091-.44.194-.73.323.249-1.073.894-1.868 1.32-2.764.038-.007.077-.021.048-.068-.002-.003-.058.02-.09.029z"/>
  <path fill-rule="evenodd" clip-rule="evenodd" fill="#FFFFFF" d="M56.201 48.248c-.01 1.476-.504 2.771-1.429 3.915-.164.204-.284.234-.539.119-2.793-1.268-5.524-1.16-8.166.435-.213.129-.332.129-.517-.05-1.902-1.822-2.431-4.696-1.301-7.158 1.125-2.454 3.593-3.874 6.259-3.604 3.309.336 5.717 3.018 5.693 6.343zm-6.768-.47a.828.828 0 0 0-.799-.826.823.823 0 0 0-.832.833.815.815 0 1 0 1.631-.007zM34.967 48.262c-.006-2.057 1.14-3.822 2.912-4.487 1.942-.728 4.106-.191 5.443 1.333.2.228.235.412.109.694-.43.97-.553 1.995-.434 3.044.033.288-.023.398-.321.468-1.829.43-2.981 1.535-3.291 3.426-.051.315-.219.277-.43.251-1.918-.228-3.458-1.646-3.868-3.554a5.592 5.592 0 0 1-.12-1.175zm3.554-.017a.82.82 0 0 0-.797-.822.83.83 0 0 0-.849.82.821.821 0 0 0 .803.818.81.81 0 0 0 .843-.816z"/>
  <path fill-rule="evenodd" clip-rule="evenodd" fill="#91BED4" d="M74.307 30.692c.258.683.678 1.28 1.021 1.917-.633.105-1.233-.153-1.855-.167-.281-.006-.716.133-.812-.091-.114-.267.28-.493.465-.722.319-.396.73-.695 1.181-.937zM46.335 18.729l2.243.148c-1.205.313-2.127 1.075-3.019 1.909.133-.74.208-1.491.776-2.057z"/>
  <path fill-rule="evenodd" clip-rule="evenodd" fill="#FFFFFF" d="M38.009 53.786a4.757 4.757 0 0 0-1.544.754c-.089.066-.187.124-.23-.037-.098-.365-.234-.729-.152-1.113.095-.448.47-.642.9-.456.408.176.707.494 1.026.852zM57.64 35.812c-.025-.013-.051-.025-.074-.04-.004-.002 0-.017.001-.026.024.022.047.044.073.066zM31.985 31.035l.04-.097c.071.071-.04.058-.042.094l.002.003zM59.824 44.276c.035-.051.081-.084.132-.03.01.01-.028.067-.044.103a3.095 3.095 0 0 0-.088-.073zM53.088 24.454l.056.047c-.015.003-.03.012-.041.008-.04-.015-.041-.038-.004-.062l-.011.007zM59.997 25.199c.021.039.042.08-.011.107-.007.003-.034-.037-.051-.057a.302.302 0 0 1 .062-.05zM61.725 71.229l-.009-.103.09.037-.081.066z"/>
  <path fill-rule="evenodd" clip-rule="evenodd" fill="#91BED4" d="M76.877 29.647a1.61 1.61 0 0 1 .326-1.033c.7-.961 1.619-1.642 2.764-1.965.947-.268 1.754.097 2.367.985.557.806.607 1.748.065 2.499a5.024 5.024 0 0 1-2.791 1.932c-1.34.369-2.749-.895-2.731-2.418zM30.917 83.9c.123-1.098.526-2.201 1.358-3.093.625-.671 1.421-.757 2.256-.399.81.347 1.319.943 1.289 1.851-.042 1.308-.573 2.451-1.473 3.372-.618.635-1.423.594-2.204.237-.792-.362-1.218-.971-1.226-1.968zM23.518 19.558c.403.01.752.153 1.056.395a12.916 12.916 0 0 1 2.91 3.299c.138.222.227.471.273.735.086.49-.051.905-.425 1.221-.37.311-.799.321-1.241.16-.25-.091-.48-.22-.68-.391-1.143-.974-2.136-2.079-2.875-3.391-.428-.761-.271-1.422.367-1.844.194-.128.404-.16.615-.184zM60.703 14.188c-.38-.025-.864-.184-1.354-.322-.194-.055-.21-.154-.161-.321.176-.6.344-1.203.516-1.805.039-.138.095-.242.273-.184.47.153.962.239 1.407.465.577.292.823.762.689 1.308-.144.593-.552.877-1.37.859zM20.513 32.358a2.064 2.064 0 0 1-.809-.169c-1.345-.591-2.576-1.362-3.657-2.361-.397-.367-.696-.801-.556-1.387.164-.686.748-1.074 1.447-.975.528.075.996.313 1.461.56.99.526 1.92 1.142 2.755 1.889.386.345.679.772.633 1.336-.053.682-.553 1.112-1.274 1.107z"/>
  <path fill-rule="evenodd" clip-rule="evenodd" fill="#172033" d="M58.409 32.321c.032-.009.088-.032.092-.025.029.047-.01.061-.048.068l-.044-.043zM49.433 47.778a.815.815 0 1 1-1.631.007.823.823 0 0 1 .832-.833c.442.012.798.38.799.826zM38.521 48.245a.81.81 0 0 1-.843.816.821.821 0 0 1-.803-.818.83.83 0 0 1 .849-.82.819.819 0 0 1 .797.822z"/>
  <path fill="#172033" d="M50 99.899C22.485 99.899.1 77.515.1 50S22.485.1 50 .1C77.515.1 99.899 22.485 99.899 50c0 27.515-22.384 49.899-49.899 49.899zm0-98.157C23.391 1.742 1.742 23.391 1.742 50S23.391 98.258 50 98.258 98.258 76.609 98.258 50 76.609 1.742 50 1.742z"/>
</svg>