<svg xmlns="http://www.w3.org/2000/svg" width="100" height="100" viewBox="0 0 100 100" xml:space="preserve">
  <path fill-rule="evenodd" clip-rule="evenodd" fill="#4DB987" d="M79.341 9.139c6.135-.012 12.269-.019 18.402-.042.572-.002.644.163.4.651-1.196 2.399-2.607 4.677-3.942 6.997-5.989 10.402-11.994 20.797-17.998 31.191-5.875 10.17-11.757 20.336-17.634 30.506-2.276 3.939-4.543 7.885-6.819 11.824-.914 1.581-.922 1.579-1.847-.023C39.708 72.58 29.512 54.918 19.32 37.254 14.096 28.198 8.88 19.138 3.663 10.078c-.543-.943-.526-.976.552-.974 6.037.008 12.074.022 18.111.035.083.208.142.432.253.624 2.761 4.771 5.536 9.534 8.292 14.308 5.882 10.19 11.755 20.387 17.634 30.58.747 1.295 1.509 2.58 2.318 3.964.176-.273.267-.401.345-.537C56.2 49.37 61.23 40.66 66.263 31.952c3.308-5.722 6.638-11.43 9.916-17.167 1.07-1.873 2.26-3.68 3.162-5.646z"/><path fill-rule="evenodd" clip-rule="evenodd" fill="#435466" d="M79.341 9.139c-.901 1.967-2.092 3.773-3.161 5.645-3.278 5.738-6.608 11.446-9.916 17.167-5.033 8.708-10.063 17.417-15.095 26.126-.078.136-.169.264-.345.537-.81-1.384-1.572-2.669-2.318-3.964-5.879-10.193-11.752-20.389-17.634-30.58-2.756-4.774-5.531-9.537-8.292-14.308-.111-.192-.169-.416-.253-.624 5.649-.012 11.298-.014 16.946-.051.647-.004.812.426 1.045.829 2.734 4.719 5.459 9.443 8.19 14.164.737 1.274 1.485 2.542 2.313 3.96.389-.639.694-1.12.979-1.614 3.167-5.475 6.341-10.946 9.481-16.437.384-.671.817-.916 1.596-.909 5.489.049 10.977.046 16.464.059z"/>
</svg>